<?xml version="1.0" encoding="iso-8859-1"?>
<!-- Generator: Adobe Illustrator 19.0.0, SVG Export Plug-In . SVG Version: 6.00 Build 0)  -->
<svg version="1.1" id="Layer_1" xmlns="http://www.w3.org/2000/svg" xmlns:xlink="http://www.w3.org/1999/xlink" x="0px" y="0px"
	 viewBox="0 0 512 512" style="enable-background:new 0 0 512 512;" xml:space="preserve">
<g>
	<path style="fill:#824533;" d="M278.154,506.003c-4.579,0-8.289-3.71-8.289-8.289V472.73c0-4.579,3.71-8.289,8.289-8.289
		c4.578,0,8.289,3.71,8.289,8.289v24.985C286.442,502.294,282.731,506.003,278.154,506.003z"/>
	<path style="fill:#824533;" d="M228.303,512c-2.732,0-5.406-1.349-6.988-3.82c-2.468-3.855-1.344-8.982,2.512-11.449l15.279-9.782
		c2.145-1.374,4.804-1.688,7.209-0.842l26.598,9.315h29.159c4.579,0,8.289,3.71,8.289,8.289c0,4.579-3.71,8.289-8.289,8.289h-30.568
		c-0.934,0-1.861-0.158-2.74-0.466l-24.118-8.447l-11.88,7.605C231.379,511.577,229.832,512,228.303,512z"/>
</g>
<path style="fill:#BFBABD;" d="M301.333,417.924c-0.968-0.948-2.317-1.4-3.662-1.225c-6.824,0.892-12.68,1.307-18.428,1.307
	c-10.572,0-21.263-1.139-31.78-3.387c-1.578-0.333-3.214,0.212-4.269,1.436c-1.055,1.221-1.359,2.922-0.796,4.434l18.839,50.471
	c0.645,1.73,2.295,2.876,4.141,2.876h27.633c2.258,0,4.153-1.701,4.395-3.944l5.232-48.329
	C302.782,420.213,302.303,418.873,301.333,417.924z"/>
<path style="fill:#918D8F;" d="M126.972,130.135l-7.358-27.111c-0.399-1.467-1.384-2.704-2.723-3.424
	c-1.339-0.716-2.915-0.852-4.358-0.371l-49.567,16.522c-2.389,0.797-3.938,3.11-3.764,5.623c0.172,2.512,2.025,4.591,4.501,5.052
	l56.925,10.59c0.337,0.063,0.675,0.093,1.011,0.093c1.528,0,3.006-0.634,4.063-1.779C126.989,133.93,127.47,131.969,126.972,130.135
	z"/>
<path style="fill:#CCCACB;" d="M440.915,280.825c-0.213,0.073-0.429,0.145-0.643,0.217c-0.07,0.025-0.116,0.044-0.116,0.044
	l-0.002-0.006c-16.515,5.575-34.169,8.659-52.567,8.659c-1.334,0-2.622-0.174-3.95-0.204c1.656,5.333,3.052,10.784,3.95,16.404
	c-21.229,32.926-58.141,54.785-100.227,54.785c-0.598,0-1.175-0.077-1.768-0.086c-84.883-6.41-102.684-92.432-102.692-92.463
	c4.833-32.16,30.551-47.188,30.582-47.211c9.852-5.474,20.577-9.534,31.893-12.025l-11.459-22.882
	c-7.845-19.203-12.221-40.178-12.221-62.21c0-3.498,0.192-6.949,0.411-10.392l0.644-10.643c0-34.071-27.623-61.693-61.698-61.693
	c-34.072,0-61.69,27.622-61.69,61.693c0,18.888,8.513,35.771,21.887,47.09h-0.04c0,0,3.745,3.735,0,10.993
	c-0.045,0.088-0.072,0.168-0.111,0.253C107.317,186.53,99.36,215.51,99.36,246.43c0,99.349,80.538,179.883,179.884,179.883
	c80.749,0,149.047-53.215,171.801-126.486C457.539,276.975,444.295,279.78,440.915,280.825z"/>
<g style="opacity:0.15;">
	<path style="fill:#231F20;" d="M290.986,411.528c-102.301,0-185.235-82.929-185.235-185.234c0-14.632,1.749-28.837,4.997-42.46
		c-7.324,19.48-11.391,40.542-11.391,62.599c0,99.349,80.538,179.882,179.884,179.882c55.411,0,104.957-25.06,137.949-64.463
		C384.116,392.668,339.759,411.528,290.986,411.528z"/>
</g>
<path style="fill:#DDDDDD;" d="M390.859,305.416c-4.526-28.324-19.007-54.277-40.777-73.08
	c-22.031-19.027-50.219-29.505-79.374-29.505c-20.538,0-40.885,5.269-58.837,15.236c-0.036,0.021-0.073,0.041-0.108,0.063
	c-1.183,0.708-27.198,16.645-32.143,49.554c-0.06,0.393-0.048,0.795,0.035,1.183c0.193,0.919,4.929,22.787,20.206,45.291
	c14.146,20.836,40.457,46.389,85.478,49.788c0.067,0.006,0.134,0.009,0.201,0.01c0.218,0.003,0.432,0.02,0.645,0.034
	c0.389,0.028,0.777,0.052,1.173,0.052c41.773,0,80.283-21.049,103.014-56.304C390.814,307.049,390.987,306.224,390.859,305.416z"/>
<circle style="fill:#918D8F;" cx="151.935" cy="89.402" r="13.413"/>
<path style="fill:#F25D4E;" d="M113.774,65.419c11.317-13.493,28.287-22.087,47.274-22.087c22.26,0,41.703,11.826,52.555,29.496
	c0.511,0.038,0.977,0.217,1.5,0.217c10.227,0,18.522-8.291,18.522-18.527c0-10.087-8.076-18.255-18.105-18.481
	c0,0,0.003-0.023,0.003-0.038c0-16.185-13.116-29.303-29.301-29.303c-8.096,0-15.42,3.288-20.725,8.597
	C158.871,6.067,148.109,0,135.881,0c-20.17,0-36.523,16.35-36.523,36.524C99.358,48.344,105.065,58.742,113.774,65.419z"/>
<g>
	<path style="fill:#F5F5F5;" d="M310.03,330.22c-3.935,0-7.428-2.814-8.148-6.823c-0.809-4.506,2.186-8.815,6.692-9.625
		c1.937-0.348,3.89-0.778,5.806-1.278c4.429-1.156,8.957,1.5,10.112,5.927c1.157,4.429-1.496,8.956-5.926,10.112
		c-2.327,0.608-4.703,1.131-7.06,1.554C311.011,330.177,310.518,330.22,310.03,330.22z"/>
	<path style="fill:#F5F5F5;" d="M286.293,330.679c-0.432,0-0.868-0.033-1.307-0.103c-47.272-7.484-65.526-47.161-71.18-63.873
		c-1.467-4.337,0.859-9.041,5.195-10.508c4.338-1.468,9.04,0.859,10.508,5.195c4.688,13.856,19.731,46.742,58.07,52.811
		c4.52,0.716,7.607,4.961,6.889,9.483C293.824,327.767,290.299,330.679,286.293,330.679z"/>
</g>
<g>
</g>
<g>
</g>
<g>
</g>
<g>
</g>
<g>
</g>
<g>
</g>
<g>
</g>
<g>
</g>
<g>
</g>
<g>
</g>
<g>
</g>
<g>
</g>
<g>
</g>
<g>
</g>
<g>
</g>
</svg>
