<?xml version="1.0" encoding="iso-8859-1"?>
<!-- Generator: Adobe Illustrator 19.0.0, SVG Export Plug-In . SVG Version: 6.00 Build 0)  -->
<svg version="1.1" id="Layer_1" xmlns="http://www.w3.org/2000/svg" xmlns:xlink="http://www.w3.org/1999/xlink" x="0px" y="0px"
	 viewBox="0 0 511.999 511.999" style="enable-background:new 0 0 511.999 511.999;" xml:space="preserve">
<path style="fill:#7C797B;" d="M392.201,425.397h-38.096c-3.068,0-5.554,2.486-5.554,5.554v29.395c0,1.896,0.966,3.661,2.565,4.681
	c1.598,1.021,3.606,1.156,5.326,0.358l16.713-7.753l16.71,7.753c0.744,0.345,1.542,0.515,2.337,0.515
	c1.043,0,2.083-0.294,2.989-0.873c1.598-1.02,2.565-2.785,2.565-4.681v-29.395C397.755,427.883,395.269,425.397,392.201,425.397z"/>
<g style="opacity:0.1;">
	<path style="fill:#231F20;" d="M366.325,460.346v-29.395c0-3.068,2.486-5.554,5.554-5.554h-17.773
		c-3.068,0-5.554,2.486-5.554,5.554v29.395c0,1.896,0.966,3.661,2.565,4.681c1.599,1.021,3.606,1.156,5.327,0.358l9.91-4.598
		C366.339,460.64,366.325,460.495,366.325,460.346z"/>
</g>
<polyline style="fill:#EF5252;" points="348.552,393.362 348.552,435.765 397.738,435.765 397.738,368.827 "/>
<polygon style="opacity:0.1;fill:#231F20;enable-background:new    ;" points="366.333,385.954 348.552,393.362 348.552,435.765 
	366.333,435.765 366.333,390.151 "/>
<path style="fill:#7C797B;" d="M144.945,425.397H106.85c-3.068,0-5.554,2.486-5.554,5.554v29.395c0,1.896,0.966,3.661,2.565,4.681
	c1.599,1.021,3.606,1.156,5.326,0.358l16.713-7.753l16.71,7.753c0.744,0.345,1.542,0.515,2.337,0.515
	c1.043,0,2.083-0.294,2.989-0.873c1.597-1.02,2.565-2.785,2.565-4.681v-29.395C150.5,427.883,148.014,425.397,144.945,425.397z"/>
<g style="opacity:0.1;">
	<path style="fill:#231F20;" d="M119.069,460.346v-29.395c0-3.068,2.486-5.554,5.554-5.554H106.85c-3.068,0-5.554,2.486-5.554,5.554
		v29.395c0,1.896,0.966,3.661,2.565,4.681c1.599,1.021,3.606,1.156,5.326,0.358l9.911-4.598
		C119.084,460.64,119.069,460.495,119.069,460.346z"/>
</g>
<path style="fill:#EF5252;" d="M101.296,362.961v72.805h49.205v-65.396c-19.44-11.627-36.089-25.916-49.205-42.108"/>
<path style="opacity:0.1;fill:#231F20;enable-background:new    ;" d="M119.069,347.068c-6.476-5.92-12.424-12.201-17.773-18.808
	v34.699v72.805h17.773V362.96V347.068z"/>
<path style="fill:#918D8F;" d="M208.203,425.397h-53.259c-3.068,0-5.554,2.486-5.554,5.554v30.232c0,1.804,0.876,3.495,2.349,4.537
	c1.473,1.04,3.36,1.302,5.062,0.699l24.775-8.786l24.773,8.786c0.603,0.213,1.23,0.319,1.855,0.319c1.133,0,2.254-0.348,3.205-1.018
	c1.473-1.042,2.349-2.733,2.349-4.537v-30.232C213.758,427.883,211.27,425.397,208.203,425.397z"/>
<g style="opacity:0.1;">
	<path style="fill:#231F20;" d="M167.162,461.182v-30.232c0-3.068,2.486-5.554,5.554-5.554h-17.773
		c-3.068,0-5.554,2.486-5.554,5.554v30.232c0,1.804,0.876,3.495,2.349,4.537c1.473,1.04,3.36,1.302,5.062,0.699l10.573-3.749
		C167.241,462.189,167.162,461.691,167.162,461.182z"/>
</g>
<path style="fill:#918D8F;" d="M455.459,425.397H402.2c-3.068,0-5.554,2.486-5.554,5.554v30.232c0,1.804,0.876,3.495,2.349,4.537
	c1.473,1.04,3.36,1.302,5.062,0.699l24.775-8.786l24.773,8.786c0.603,0.213,1.23,0.319,1.855,0.319c1.133,0,2.254-0.348,3.205-1.018
	c1.473-1.042,2.349-2.733,2.349-4.537v-30.232C461.013,427.883,458.526,425.397,455.459,425.397z"/>
<path style="fill:#EF5252;" d="M508.655,113.499c-6.162-8.216-11.386,0-11.386,0c-1.504,43.301-40.507,54.692-40.507,54.692
	l14.769,27.516C517.282,171.147,514.814,121.716,508.655,113.499z"/>
<g style="opacity:0.1;">
	<path style="fill:#231F20;" d="M414.418,461.182v-30.232c0-3.068,2.486-5.554,5.554-5.554h-17.773
		c-3.068,0-5.554,2.486-5.554,5.554v30.232c0,1.804,0.876,3.495,2.349,4.537c1.473,1.04,3.36,1.302,5.062,0.699l10.573-3.749
		C414.497,462.189,414.418,461.691,414.418,461.182z"/>
</g>
<path style="fill:#F97373;" d="M275.136,81.441c-1.411,0-2.8,0.07-4.209,0.096L68.424,245.193
	c1.059,51.01,32.572,96.224,80.966,125.176v65.396h64.368v-39.357c19.396,4.689,40.012,7.228,61.378,7.228
	c45.417,0,87.388-11.437,121.492-30.765v62.894h64.377V313.228c13.403-21.347,20.945-45.33,20.945-70.694
	C481.949,153.571,389.364,81.441,275.136,81.441z"/>
<g style="opacity:0.1;">
	<path style="fill:#231F20;" d="M167.162,435.765v-74.469c-41.52-24.84-70.595-61.657-78.69-103.829
		c-7.125-3.568-13.843-7.67-20.05-12.275c1.059,51.01,32.572,96.224,80.966,125.176v65.396H167.162z"/>
</g>
<g>
	<path style="fill:#F9A2A2;" d="M441.918,247.506c-4.095,0-7.665-3.019-8.242-7.189c-7.218-52.12-51.689-80.807-77.554-93.268
		c-4.145-1.997-5.886-6.976-3.89-11.122c1.998-4.146,6.975-5.89,11.122-3.89c28.873,13.909,78.544,46.175,86.829,105.993
		c0.63,4.559-2.553,8.766-7.109,9.395C442.684,247.479,442.298,247.506,441.918,247.506z"/>
	<path style="fill:#F9A2A2;" d="M442.545,274.499c-0.241,0-0.483-0.01-0.729-0.031c-4.584-0.397-7.978-4.434-7.58-9.019
		c0.13-1.497,0.232-3.018,0.305-4.518c0.226-4.596,4.136-8.145,8.73-7.914c4.596,0.226,8.138,4.135,7.913,8.729
		c-0.083,1.707-0.201,3.438-0.349,5.141C450.46,271.226,446.821,274.499,442.545,274.499z"/>
</g>
<g style="opacity:0.1;">
	<path style="fill:#231F20;" d="M396.644,372.872v62.894h17.773v-65.307C414.418,361.016,396.644,372.872,396.644,372.872z"/>
</g>
<g>
	<path style="fill:#F9A2A2;" d="M61.249,75.266c0,0-117.083,19.212-27.491,98.349c0,0,9.379,8.302,17.175-5.897
		C59.971,151.252,96.544,63.524,61.249,75.266z"/>
	<path style="fill:#F9A2A2;" d="M248.144,75.266c0,0,117.073,19.212,27.48,98.349c0,0-9.379,8.302-17.166-5.897
		C249.419,151.252,212.84,63.524,248.144,75.266z"/>
</g>
<path style="fill:#F98080;" d="M275.624,173.616c0,0-9.379,8.302-17.166-5.897c-8.502-15.495-41.365-94.038-15.827-93.504
	c-23.387-17.952-54.131-28.952-87.94-28.952c-33.806,0-64.551,10.998-87.931,28.952c25.54-0.542-7.332,78.009-15.827,93.504
	c-7.796,14.199-17.175,5.897-17.175,5.897c-4.189-3.7-7.787-7.236-11.113-10.683c2.397,61.035,60.513,109.909,132.046,109.909
	c71.535,0,129.649-48.874,132.055-109.909C283.422,166.38,279.824,169.915,275.624,173.616z"/>
<path style="fill:#F9A2A2;" d="M198.743,199.829c0,18.084-20.193,22.285-45.102,22.285c-24.918,0-45.112-4.199-45.112-22.285
	s20.195-32.748,45.112-32.748C178.551,167.081,198.743,181.743,198.743,199.829z"/>
<g>
	<path style="fill:#EF5252;" d="M137.684,203.551c-4.602,0-8.331-3.729-8.331-8.331v-0.624c0-4.602,3.729-8.331,8.331-8.331
		c4.601,0,8.331,3.729,8.331,8.331v0.624C146.015,199.822,142.285,203.551,137.684,203.551z"/>
	<path style="fill:#EF5252;" d="M169.599,203.551c-4.602,0-8.331-3.729-8.331-8.331v-0.624c0-4.602,3.729-8.331,8.331-8.331
		c4.6,0,8.331,3.729,8.331,8.331v0.624C177.931,199.822,174.198,203.551,169.599,203.551z"/>
</g>
<g>
	<path style="fill:#3A3637;" d="M123.755,143.01c0,4.531-3.676,8.207-8.218,8.207c-4.54,0-8.212-3.676-8.212-8.207
		c0-4.54,3.672-8.216,8.212-8.216C120.08,134.794,123.755,138.47,123.755,143.01z"/>
	<path style="fill:#3A3637;" d="M202.06,143.002c0,4.53-3.676,8.207-8.216,8.207c-4.54,0-8.216-3.677-8.216-8.207
		c0-4.541,3.676-8.216,8.216-8.216C198.385,134.786,202.06,138.461,202.06,143.002z"/>
</g>
<g>
</g>
<g>
</g>
<g>
</g>
<g>
</g>
<g>
</g>
<g>
</g>
<g>
</g>
<g>
</g>
<g>
</g>
<g>
</g>
<g>
</g>
<g>
</g>
<g>
</g>
<g>
</g>
<g>
</g>
</svg>
